<svg width="22" height="22" viewBox="0 0 22 22" fill="none" xmlns="http://www.w3.org/2000/svg">
<rect width="22" height="22" rx="4" fill="#FFB5B5"/>
<path d="M14.5 3C12.0147 3 10 5.01472 10 7.5C10 7.79343 10.0282 8.08069 10.082 8.35911L3.65657 15.0184C2.69222 16.0178 2.79654 17.6302 3.88165 18.497C4.82422 19.25 6.18315 19.1698 7.03065 18.3113L10.0036 15.2995C10.1091 12.3548 12.5296 10 15.5 10C16.3354 10 17.1274 10.1863 17.8366 10.5196C18.5596 9.72112 19 8.66199 19 7.5C19 7.15299 18.9606 6.81456 18.8859 6.48916C18.8452 6.31191 18.7115 6.17074 18.5367 6.12051C18.3619 6.07029 18.1736 6.11892 18.045 6.24751L15.4999 8.79269L13.2075 6.49994L15.7525 3.95496C15.8811 3.82636 15.9297 3.63809 15.8795 3.4633C15.8292 3.28852 15.6881 3.15479 15.5108 3.11409C15.1854 3.03937 14.847 3 14.5 3ZM11.6346 14.92C12.7225 14.6421 13.3685 13.5232 13.0652 12.4421L12.909 11.8853C13.1631 11.69 13.4385 11.5227 13.7309 11.3878L14.0683 11.7458C14.8572 12.5829 16.188 12.5836 16.9778 11.7473L17.3025 11.4035C17.6003 11.544 17.8801 11.7183 18.1373 11.9216L18.0111 12.3439C17.6818 13.446 18.3478 14.5982 19.4672 14.8628L19.8162 14.9454C19.8378 15.1271 19.8489 15.3122 19.8489 15.5C19.8489 15.656 19.8412 15.8101 19.8263 15.962L19.3657 16.0797C18.2778 16.3576 17.6318 17.4765 17.9351 18.5576L18.0912 19.1143C17.8372 19.3096 17.5618 19.477 17.2694 19.6119L16.932 19.2539C16.1431 18.4168 14.8123 18.4161 14.0225 19.2524L13.6975 19.5965C13.3998 19.4561 13.12 19.2819 12.8628 19.0786L12.9892 18.6558C13.3185 17.5537 12.6525 16.4016 11.5331 16.1369L11.1835 16.0542C11.162 15.8726 11.1509 15.6876 11.1509 15.5C11.1509 15.3439 11.1586 15.1898 11.1735 15.0378L11.6346 14.92ZM14.4999 15.5C14.4999 16.0523 14.9476 16.5 15.4999 16.5C16.0522 16.5 16.4999 16.0523 16.4999 15.5C16.4999 14.9477 16.0522 14.5 15.4999 14.5C14.9476 14.5 14.4999 14.9477 14.4999 15.5Z" fill="#242424"/>
</svg>
